
<svg version="1.0" xmlns="http://www.w3.org/2000/svg"
 width="300.000000pt" height="92.000000pt" viewBox="0 0 300.000000 92.000000"
 preserveAspectRatio="xMidYMid meet">

<g transform="translate(0.000000,92.000000) scale(0.100000,-0.100000)"
fill="#000000" stroke="none">
<path d="M416 911 c-3 -5 -71 -46 -152 -91 -80 -46 -152 -93 -161 -106 -11
-18 -15 -62 -17 -200 -2 -97 0 -194 4 -215 9 -47 26 -62 155 -134 55 -31 127
-72 160 -91 33 -18 71 -34 85 -34 32 0 331 164 377 206 l33 31 0 206 0 206
-29 33 c-16 18 -46 42 -68 53 -61 32 -216 124 -227 135 -12 12 -153 13 -160 1z
m441 -423 l3 -213 -142 -80 c-78 -44 -160 -90 -183 -103 l-42 -24 -184 105
-184 104 -3 209 -2 209 186 106 187 106 181 -103 181 -103 2 -213z"/>
<path d="M361 751 l-133 -75 39 -19 38 -19 94 54 94 55 95 -55 95 -55 38 19
37 19 -132 75 -133 76 -132 -75z"/>
<path d="M393 608 l-53 -30 0 -70 0 -70 38 23 c87 53 82 46 82 115 0 35 -3 64
-7 63 -5 0 -32 -14 -60 -31z"/>
<path d="M530 573 l0 -68 60 -33 60 -33 0 70 0 71 -52 27 c-29 15 -56 29 -60
31 -5 2 -8 -27 -8 -65z m76 -24 c3 -6 1 -16 -5 -22 -9 -9 -14 -8 -21 3 -5 8
-10 18 -10 23 0 11 28 8 36 -4z"/>
<path d="M197 467 l1 -150 114 -65 c62 -35 117 -68 123 -73 18 -17 25 -9 25
30 l0 40 -99 55 -98 56 4 107 5 108 -39 21 -38 22 2 -151z"/>
<path d="M753 598 l-33 -20 0 -111 -1 -112 -92 -51 c-92 -50 -92 -51 -95 -93
l-3 -42 53 31 c29 17 88 50 130 73 l78 42 0 153 c0 83 -1 152 -2 151 -2 0 -18
-10 -35 -21z"/>
<path d="M437 416 c-31 -17 -57 -33 -57 -36 0 -3 25 -19 55 -37 l55 -32 60 32
c33 18 60 34 60 37 0 3 -26 19 -58 36 l-58 31 -57 -31z m83 -37 c0 -16 -31
-22 -43 -10 -9 9 -9 14 2 20 16 10 41 4 41 -10z"/>
<path d="M1003 685 c-32 -22 -36 -59 -13 -110 26 -57 26 -134 0 -185 -26 -51
-25 -66 4 -95 22 -22 29 -23 172 -23 116 0 154 3 172 15 21 13 28 13 63 -1 51
-21 138 -20 190 1 38 15 43 15 69 0 20 -12 52 -17 113 -17 91 0 129 10 162 40
21 19 21 19 59 -8 34 -24 47 -27 121 -27 74 0 85 3 118 28 l36 28 43 -28 c37
-25 51 -28 122 -28 61 0 88 5 107 18 25 17 27 17 52 -3 22 -17 40 -20 139 -20
107 0 116 2 136 23 15 16 22 36 22 64 0 56 -7 71 -41 89 -39 20 -39 58 0 78
34 18 41 33 41 91 0 35 -5 48 -26 64 -23 18 -41 21 -134 21 -92 0 -111 -3
-133 -20 -25 -20 -25 -20 -73 1 -38 17 -60 20 -111 16 -57 -4 -75 -11 -128
-51 -7 -5 -27 2 -55 20 -38 26 -53 29 -119 29 -57 0 -84 -5 -107 -19 -31 -19
-32 -19 -57 1 -21 16 -42 20 -112 21 -92 1 -127 -7 -162 -40 l-22 -20 -35 27
c-26 20 -51 28 -94 32 -76 7 -128 -10 -169 -55 l-32 -35 -28 31 c-16 17 -45
38 -65 47 -50 20 -196 21 -225 0z m866 -27 l66 1 -1 -52 c-2 -50 -3 -52 -33
-55 -19 -2 -41 5 -59 18 -20 15 -40 20 -63 18 -29 -2 -34 -7 -34 -28 0 -23 6
-27 65 -40 83 -20 130 -61 130 -112 0 -71 -76 -121 -152 -100 -20 5 -54 6 -77
2 l-41 -7 0 58 0 59 33 -6 c17 -3 50 -15 72 -26 32 -16 45 -18 68 -9 55 21 16
61 -75 76 -20 3 -50 18 -67 34 -59 56 -31 153 49 170 19 4 39 6 44 3 5 -3 39
-4 75 -4z m-608 -36 c36 -40 39 -96 8 -136 l-20 -26 22 -40 c14 -24 30 -40 41
-40 14 0 18 -8 18 -35 l0 -35 -75 0 -75 0 0 35 c0 25 4 35 15 35 14 0 14 3 2
27 -11 19 -22 26 -46 27 -27 1 -31 -2 -31 -26 0 -18 5 -28 15 -28 11 0 15 -11
15 -37 l0 -38 -70 3 -70 4 0 34 c0 27 4 34 20 34 19 0 20 7 20 105 0 98 -1
105 -20 105 -16 0 -20 7 -20 36 l0 36 111 -4 111 -3 29 -33z m341 9 l33 -29 0
-117 0 -117 -33 -29 c-29 -26 -39 -29 -105 -29 -116 0 -147 35 -147 170 0 143
30 180 147 180 66 0 76 -3 105 -29z m604 10 c30 -18 62 -80 51 -98 -3 -5 -20
-8 -38 -7 -27 1 -35 6 -39 25 -5 21 -12 24 -59 27 -74 4 -81 -4 -81 -102 0
-44 4 -87 9 -94 5 -9 26 -12 67 -10 52 3 59 5 62 26 3 18 10 22 43 22 43 0 45
-5 25 -54 -21 -51 -50 -66 -128 -66 -125 0 -148 28 -148 180 l0 102 34 34 c32
32 38 34 103 34 49 0 77 -5 99 -19z m314 4 c44 -23 50 -43 50 -165 0 -110 0
-112 -29 -141 -27 -27 -35 -29 -106 -29 -42 0 -85 5 -96 10 -36 20 -49 63 -49
164 0 105 9 134 48 159 35 21 142 23 182 2z m340 -40 l0 -55 -41 0 c-36 0 -41
2 -36 20 4 17 0 20 -34 20 -38 0 -39 -1 -39 -35 0 -34 1 -35 40 -35 39 0 40
-1 40 -35 0 -34 -1 -35 -40 -35 -39 0 -40 -1 -40 -35 0 -34 1 -35 39 -35 30 0
38 4 37 17 -1 12 8 16 34 17 l35 1 3 -52 3 -53 -120 0 c-67 0 -124 -1 -128 -2
-5 -2 -9 14 -11 35 -3 32 0 37 17 37 20 0 21 6 21 105 0 98 -1 105 -20 105
-16 0 -20 7 -20 35 l0 35 130 0 130 0 0 -55z m-704 -76 c13 -12 37 -24 54 -28
42 -8 43 -24 2 -32 -18 -4 -44 -17 -57 -29 -14 -13 -32 -20 -47 -18 -20 3 -23
9 -26 52 -2 27 -1 55 2 62 8 21 47 17 72 -7z"/>
<path d="M1120 545 c0 -43 2 -45 28 -45 34 0 72 25 72 49 0 27 -21 41 -62 41
l-38 0 0 -45z"/>
<path d="M1435 580 c-9 -15 -10 -174 -1 -189 9 -15 109 -14 124 1 7 7 12 43
12 93 0 50 -5 86 -12 93 -15 15 -114 16 -123 2z m90 -95 c0 -56 -2 -60 -24
-63 -29 -5 -41 12 -41 60 0 55 9 70 39 66 25 -3 26 -6 26 -63z"/>
<path d="M2372 578 c-14 -14 -17 -165 -3 -186 5 -9 26 -12 67 -10 l59 3 0 100
0 100 -55 3 c-34 2 -60 -2 -68 -10z m86 -96 l3 -63 -28 3 c-26 3 -28 7 -31 52
-4 62 2 78 30 74 21 -3 23 -9 26 -66z"/>
</g>
</svg>
